<?xml version="1.0" encoding="UTF-8" standalone="no" ?>
<!-- Order of digits in Nixie clocks according to wikipedia: 6 7 5 8 4 3 9 2 0 1  -->
<svg xmlns="http://www.w3.org/2000/svg" xmlns:xlink="http://www.w3.org/1999/xlink" style="isolation:isolate" viewBox="0 0 595.276 3401.575" width="595.276pt" height="3401.575pt">
    <path id="1" d=" M 251.022 134.81 Q 296.516 118.571 302.431 116.976 Q 306.842 115.787 302.11 349.485" fill="none" vector-effect="non-scaling-stroke" stroke-width="5" stroke="rgb(255,255,0)" stroke-linejoin="miter" stroke-linecap="square" stroke-miterlimit="3" />
    <path id="0" d=" M 227.939 233.227 C 227.939 169.063 261.479 116.97 302.79 116.97 C 344.102 116.97 377.642 169.063 377.642 233.227 C 377.642 297.392 344.102 349.485 302.79 349.485 C 261.479 349.485 227.939 297.392 227.939 233.227 Z " fill="none" vector-effect="non-scaling-stroke" stroke-width="5" stroke="rgb(255,255,0)" stroke-linejoin="miter" stroke-linecap="square" stroke-miterlimit="3" />
    <path id="2" d=" M 231.748 173.59 C 232.046 170.253 232.393 168.153 233.378 164.593 C 239.947 140.843 262.114 121.628 290.444 117.727 C 337.232 111.285 370.496 147.012 366.271 184.984 C 365.916 188.17 365.322 191.344 364.491 194.464 C 361.251 206.636 354.4 217.985 344.562 227.169 L 344.562 227.169 L 344.562 227.169 L 229.097 344.637 C 227.301 346.441 227.414 349.485 230.712 349.485 L 230.712 349.485 L 230.712 349.485 L 377.642 349.485" fill="none" vector-effect="non-scaling-stroke" stroke-width="5" stroke="rgb(255,255,0)" stroke-linejoin="miter" stroke-linecap="square" stroke-miterlimit="3" />
    <path id="9" d=" M 377.642 181.417 C 377.642 216.986 344.102 245.863 302.79 245.863 C 261.479 245.863 227.939 216.986 227.939 181.417 C 227.939 145.848 261.479 116.97 302.79 116.97 C 344.102 116.97 377.642 145.848 377.642 181.417 Z  M 271.828 349.485 L 366.895 214.656" fill-rule="evenodd" fill="none" vector-effect="non-scaling-stroke" stroke-width="5" stroke="rgb(255,255,0)" stroke-linejoin="miter" stroke-linecap="square" stroke-miterlimit="3" />
    <path id="3" d=" M 239.883 172.203 C 239.117 103.11 367.676 94.144 367.713 172.203 C 367.742 232.418 264.298 224.455 304.329 224.541 C 339.844 229.237 380.786 255.053 377.451 292.479 C 373.899 332.345 341.014 349.485 306.988 349.485 C 266.424 349.485 224.238 325.125 228.197 285.868" fill="none" vector-effect="non-scaling-stroke" stroke-width="5" stroke="rgb(255,255,0)" stroke-linejoin="miter" stroke-linecap="square" stroke-miterlimit="3" />
    <path id="4" d=" M 341.678 349.485 Q 345.001 116.926 341.678 116.97 C 338.412 117.013 304.945 171.352 282.462 204.638 C 257.469 241.64 252.591 249.909 227.954 285.337 Q 226.419 287.545 377.642 285.997" fill="none" vector-effect="non-scaling-stroke" stroke-width="5" stroke="rgb(255,255,0)" stroke-linejoin="miter" stroke-linecap="square" stroke-miterlimit="3" />
    <path id="8" d=" M 242.326 167.681 C 242.326 139.693 269.419 116.97 302.79 116.97 C 336.162 116.97 363.255 139.693 363.255 167.681 C 363.255 195.669 336.162 218.392 302.79 218.392 C 269.419 218.392 242.326 195.669 242.326 167.681 Z  M 227.939 283.938 C 227.939 247.763 261.479 218.392 302.79 218.392 C 344.102 218.392 377.642 247.763 377.642 283.938 C 377.642 320.114 344.102 349.485 302.79 349.485 C 261.479 349.485 227.939 320.114 227.939 283.938 Z " fill-rule="evenodd" fill="none" vector-effect="non-scaling-stroke" stroke-width="5" stroke="rgb(255,255,0)" stroke-linejoin="miter" stroke-linecap="square" stroke-miterlimit="3" />
    <path id="5" d=" M 364.008 116.97 L 241.545 116.97 L 241.545 207.659 Q 281.811 207.659 307.583 207.659 C 360.61 208.582 378.439 253.376 377.615 280.695 C 375.76 342.177 318.031 350.064 305.126 349.454 Q 232.854 346.038 227.939 278.721" fill="none" vector-effect="non-scaling-stroke" stroke-width="5" stroke="rgb(255,255,0)" stroke-linejoin="miter" stroke-linecap="square" stroke-miterlimit="3" />
    <path id="7" d=" M 227.939 116.97 L 377.642 117.316 L 256.506 349.485" fill="none" vector-effect="non-scaling-stroke" stroke-width="5" stroke="rgb(255,255,0)" stroke-linejoin="miter" stroke-linecap="square" stroke-miterlimit="3" />
    <path id="6" d=" M 227.939 285.038 C 227.939 249.469 261.479 220.591 302.79 220.591 C 344.102 220.591 377.642 249.469 377.642 285.038 C 377.642 320.607 344.102 349.485 302.79 349.485 C 261.479 349.485 227.939 320.607 227.939 285.038 Z  M 333.753 116.97 L 238.686 251.799" fill-rule="evenodd" fill="none" vector-effect="non-scaling-stroke" stroke-width="5" stroke="rgb(255,255,0)" stroke-linejoin="miter" stroke-linecap="square" stroke-miterlimit="3" />
</svg>